<mxfile host="app.diagrams.net" modified="2022-12-29T14:10:37.934Z" agent="5.0 (Windows NT 10.0; Win64; x64) AppleWebKit/537.36 (KHTML, like Gecko) Chrome/107.0.0.0 Safari/537.36" etag="-gYhUA6OpFXqm5LF-3pq" version="20.7.4" type="github">
  <diagram id="prtHgNgQTEPvFCAcTncT" name="Page-1">
    <mxGraphModel dx="1434" dy="756" grid="1" gridSize="10" guides="1" tooltips="1" connect="1" arrows="1" fold="1" page="1" pageScale="1" pageWidth="827" pageHeight="1169" math="0" shadow="0">
      <root>
        <mxCell id="0" />
        <mxCell id="1" parent="0" />
        <mxCell id="ZMkgEjLzoJMiGTBHx-T8-1" value="" style="shape=flexArrow;endArrow=classic;html=1;rounded=0;fillColor=#1ba1e2;strokeColor=#006EAF;" edge="1" parent="1">
          <mxGeometry width="50" height="50" relative="1" as="geometry">
            <mxPoint x="160" y="240" as="sourcePoint" />
            <mxPoint x="160" y="1061" as="targetPoint" />
          </mxGeometry>
        </mxCell>
        <mxCell id="ZMkgEjLzoJMiGTBHx-T8-2" value="" style="rounded=0;whiteSpace=wrap;html=1;strokeColor=#3399FF;strokeWidth=1;" vertex="1" parent="1">
          <mxGeometry x="200" y="240" width="110" height="820" as="geometry" />
        </mxCell>
        <mxCell id="ZMkgEjLzoJMiGTBHx-T8-3" value="&lt;b&gt;&lt;font color=&quot;#3399ff&quot;&gt;代码规范&lt;/font&gt;&lt;/b&gt;" style="rounded=1;whiteSpace=wrap;html=1;strokeColor=#3399FF;" vertex="1" parent="1">
          <mxGeometry x="210" y="270" width="90" height="60" as="geometry" />
        </mxCell>
        <mxCell id="ZMkgEjLzoJMiGTBHx-T8-6" value="&lt;h3 style=&quot;line-height: 150%;&quot;&gt;&lt;b&gt;&lt;font style=&quot;font-size: 15px;&quot;&gt;流程规范&lt;/font&gt;&lt;/b&gt;&lt;/h3&gt;" style="text;html=1;align=center;verticalAlign=middle;resizable=0;points=[];autosize=1;strokeColor=none;fillColor=none;fontColor=#3399FF;" vertex="1" parent="1">
          <mxGeometry x="210" y="190" width="80" height="60" as="geometry" />
        </mxCell>
        <mxCell id="ZMkgEjLzoJMiGTBHx-T8-8" value="&lt;h3&gt;&lt;b&gt;开发&lt;/b&gt;&lt;/h3&gt;" style="text;html=1;align=center;verticalAlign=middle;resizable=0;points=[];autosize=1;strokeColor=none;fillColor=none;fontSize=15;fontColor=#3399FF;" vertex="1" parent="1">
          <mxGeometry x="85" y="265" width="60" height="70" as="geometry" />
        </mxCell>
      </root>
    </mxGraphModel>
  </diagram>
</mxfile>
